<?xml version="1.0" encoding="UTF-8"?><svg xmlns="http://www.w3.org/2000/svg" xmlns:xlink="http://www.w3.org/1999/xlink" viewBox="0 0 562 562"><defs><style>.aa{fill:url(#g);}.ab{fill:url(#k);}.ac{fill:none;}.ad{filter:url(#d);mix-blend-mode:multiply;}.ad,.ae,.af{fill:#fff;}.ae{filter:url(#p);}.af{filter:url(#w);}.ag{filter:url(#h);}.ah{fill:url(#t);filter:url(#u);}.ai{fill:url(#m);filter:url(#n);}.aj{isolation:isolate;}</style><filter id="d" filterUnits="userSpaceOnUse"><feOffset dx="0" dy="10"/><feGaussianBlur result="e" stdDeviation="8"/><feFlood flood-color="#000" flood-opacity=".2"/><feComposite in2="e" operator="in"/><feComposite in="SourceGraphic"/></filter><linearGradient id="g" x1="73" y1="334.68" x2="489" y2="334.68" gradientTransform="matrix(1, 0, 0, 1, 0, 0)" gradientUnits="userSpaceOnUse"><stop offset="0" stop-color="#d1d5db"/><stop offset="1" stop-color="#6b7280"/></linearGradient><filter id="h" filterUnits="userSpaceOnUse"><feOffset dx="0" dy="10"/><feGaussianBlur result="i" stdDeviation="8"/><feFlood flood-color="#000" flood-opacity=".2"/><feComposite in2="i" operator="in"/><feComposite in="SourceGraphic"/></filter><linearGradient id="k" x1="161.57" y1="30.1" x2="400.43" y2="268.96" gradientTransform="matrix(1, 0, 0, 1, 0, 0)" gradientUnits="userSpaceOnUse"><stop offset="0" stop-color="#9ca3af"/><stop offset="1" stop-color="#6b7280"/></linearGradient><linearGradient id="m" x1="369.72" y1="211.7" x2="508.32" y2="350.29" gradientTransform="matrix(1, 0, 0, 1, 0, 0)" gradientUnits="userSpaceOnUse"><stop offset="0" stop-color="#ef4444"/><stop offset="1" stop-color="#b91c1c"/></linearGradient><filter id="n" filterUnits="userSpaceOnUse"><feOffset dx="0" dy="10"/><feGaussianBlur result="o" stdDeviation="8"/><feFlood flood-color="#000" flood-opacity=".2"/><feComposite in2="o" operator="in"/><feComposite in="SourceGraphic"/></filter><filter id="p" filterUnits="userSpaceOnUse"><feOffset dx="0" dy="10"/><feGaussianBlur result="q" stdDeviation="8"/><feFlood flood-color="#000" flood-opacity=".1"/><feComposite in2="q" operator="in"/><feComposite in="SourceGraphic"/></filter><linearGradient id="t" x1="369.72" y1="53.68" x2="508.32" y2="192.28" gradientTransform="matrix(1, 0, 0, 1, 0, 0)" gradientUnits="userSpaceOnUse"><stop offset="0" stop-color="#22c55e"/><stop offset="1" stop-color="#16a34a"/></linearGradient><filter id="u" filterUnits="userSpaceOnUse"><feOffset dx="0" dy="10"/><feGaussianBlur result="v" stdDeviation="8"/><feFlood flood-color="#000" flood-opacity=".2"/><feComposite in2="v" operator="in"/><feComposite in="SourceGraphic"/></filter><filter id="w" filterUnits="userSpaceOnUse"><feOffset dx="0" dy="10"/><feGaussianBlur result="x" stdDeviation="8"/><feFlood flood-color="#000" flood-opacity=".1"/><feComposite in2="x" operator="in"/><feComposite in="SourceGraphic"/></filter></defs><g class="aj"><g id="a"/><g id="b"><g id="c"><g><g><path id="f" class="ad" d="M489,150.98V410.98c0,5.6-.59,11.07-1.72,16.34-7.5,35.24-38.8,61.66-76.28,61.66H151c-37.48,0-68.78-26.42-76.28-61.66-1.13-5.27-1.72-10.74-1.72-16.34V150.98c0-43.08,34.92-78,78-78H411c43.08,0,78,34.92,78,78Z"/><path class="aa" d="M196.44,303.86v61.73H489v45.39c0,5.6-.59,11.07-1.72,16.34H196.44v61.66h-12v-61.66H74.72c-1.13-5.27-1.72-10.74-1.72-16.34v-45.39h111.44v-61.73H73v-61.74h111.44v-61.73h12v61.73H489v61.74H196.44Z"/><g id="j" class="ag"><path class="ab" d="M489,150.98v29.41H73v-29.41c0-43.08,34.92-78,78-78H411c43.08,0,78,34.92,78,78Z"/></g><g id="l"><circle class="ai" cx="439.02" cy="280.99" r="98"/><path id="r" class="ae" d="M458.62,310.39c-2.51,0-5.02-.95-6.93-2.87l-12.67-12.67-12.68,12.67c-3.82,3.83-10.03,3.83-13.85,0-3.83-3.83-3.83-10.03,0-13.85l12.67-12.67-12.67-12.68c-3.83-3.83-3.83-10.03,0-13.85,3.82-3.83,10.03-3.83,13.85,0l12.68,12.67,12.67-12.67c3.82-3.83,10.03-3.83,13.85,0,3.83,3.83,3.83,10.03,0,13.85l-12.67,12.68,12.67,12.67c3.83,3.83,3.83,10.03,0,13.85-1.91,1.92-4.42,2.87-6.93,2.87Z"/></g><g id="s"><circle class="ah" cx="439.02" cy="122.98" r="98"/><path id="y" class="af" d="M429.22,152.38c-2.51,0-5.02-.96-6.93-2.87l-19.6-19.6c-3.83-3.83-3.83-10.03,0-13.86,3.83-3.83,10.04-3.83,13.86,0l12.68,12.67,32.27-32.27c3.82-3.83,10.03-3.83,13.85,0,3.83,3.83,3.83,10.03,0,13.86l-39.2,39.2c-1.91,1.91-4.42,2.87-6.93,2.87Z"/></g></g><rect id="a`" class="ac" width="562" height="562"/></g></g></g></g></svg>